<?xml version="1.0" encoding="utf-8"?>
<!-- Generator: Adobe Illustrator 18.1.1, SVG Export Plug-In . SVG Version: 6.00 Build 0)  -->
<svg version="1.1" id="Layer_1" xmlns="http://www.w3.org/2000/svg" xmlns:xlink="http://www.w3.org/1999/xlink" x="0px" y="0px"
	 width="1940.798px" height="490.853px"
	 >
<g>
	<path fill-rule="evenodd" clip-rule="evenodd" fill="#fff" d="M561.789,177.227v183.6c16.526,0,32.346-3.325,45.861-14.427
		l20.273-20.833c37.533-54.227-32.78-184.154,67.234-239.677c61.357-34.063,131.854,5.209,148.935,61.141
		c6.378,20.876,5.433,27.879,5.427,54.858c-0.004,19.183,0.002,38.365,0,57.543c-0.002,26.178-2.35,34.859,5.765,54.525
		c10.487,25.411,34.525,46.869,70.962,46.869c0-37.323-3.429-178.799,3.164-205.099c3.075-12.264,2.391-9.695,7.512-19.89
		c3.607-7.177,4.026-9.918,8.393-16.271c43.849-63.815,140.924-59.852,176.934,6.89l6.827,15.099
		c20.742,51.334-4.268,124.408,13.96,172.378c9.62,25.332,35.42,46.893,70.939,46.893v-180.86c0-36.5-7.35-55.926-19.445-81.942
		c-2.453-5.272-4.646-9.444-7.915-14.009c-17.855-24.912-15.874-23.953-40.441-44.509c-55.436-46.39-145.598-50.666-205.385-14.895
		c-10.259,6.139-18.593,11.643-27.449,19.137c-9.605,8.131-15.464,17.176-25.458,23.867c-7.025-4.706-9.263-9.019-16.866-16.017
		c-13.727-12.636-16.195-15.064-32.58-24.966C776.125-11.03,687.388-6.86,636.362,35.316c-8.888,7.343-14.8,12.438-23.802,20.043
		C583.911,79.566,561.789,133.061,561.789,177.227z"/>
	<path fill-rule="evenodd" clip-rule="evenodd" fill="#fff" d="M1238.641,166.266c0,21.122-0.936,44.344,5.085,63.418
		l12.427,31.419c12.396,22.287,20.829,32.521,39.308,51.125c16.919,17.033,35.622,25.23,55.492,34.934
		c36.396,17.768,97.551,13.665,142.533,13.665c0-15.225-3.494-25.828-7.789-36.054c-18.777-44.673-78.785-31.377-108.951-47.247
		c-27.228-14.32-30.852-18.568-46.787-43.643c-63.167-99.384,80.003-228.368,170.959-121.635
		c21.375,25.083,25.16,56.961,25.561,89.531c1.171,94.878-16.479,139.326,76.619,159.047c0-42.932,0-85.862,0-128.794
		c0-84.134-0.086-142.083-75.861-198.168c-0.463-0.344-1.115-0.819-1.592-1.15c-72.83-50.618-174.326-40.07-236.637,22.241
		C1265.471,78.493,1238.641,120.841,1238.641,166.266z"/>
	<path fill-rule="evenodd" clip-rule="evenodd" fill="#fff" d="M249.399,169.005c0,45.761,4.258,81.105,33.896,116.821
		c75.037,90.413,132.779,75,253.833,75c0-90.634-99.429-70.387-125.025-75.016c-23.456-4.249-44.375-16.801-59.325-33.846
		c-4.288-4.889-15.5-23.367-18.023-28.563c-11.316-23.298-12.229-60.35-0.047-84.177l7.795-14.129
		c15.122-25.739,41.086-45.456,71.082-49.492c28.328-3.811,60.302,1.138,84.077-9.092c26.329-11.328,39.467-34.838,39.467-64.664
		c-67.979,0-136.575-8.552-188.196,17.325c-19.493,9.771-32.629,21.078-47.191,35.017c-0.407,0.391-0.99,0.952-1.391,1.352
		C271.187,84.667,249.399,126.434,249.399,169.005z"/>
	<path fill-rule="evenodd" clip-rule="evenodd" fill="#fff" d="M189.113,360.826h101.388c0-25.687-6.899-41.155-25.415-56.793
		c-39.19-33.098-80.152-4.342-122.657-25.32c-38.986-19.241-39.125-30.474-51.064-50.324
		C54.861,167.692,116.011,39.452,35.387,7.596C-10.024-10.349,0.562,7.317,2.287,21.327C11.575,96.74-14.337,192.022,20.99,263.142
		c2.659,5.354,3.835,8.033,6.797,12.384l7.96,11.22c7.314,10.58,27.628,30.922,38.225,38.507
		C103.746,346.557,137.779,360.826,189.113,360.826z"/>
	<path fill-rule="evenodd" clip-rule="evenodd" fill="#fff" d="M1839.407,0.001h101.391c0,25.684-6.901,41.155-25.416,56.791
		c-39.193,33.098-80.156,4.343-122.658,25.318c-38.986,19.243-39.128,30.476-51.063,50.328
		c-36.506,60.694,24.644,188.939-55.979,220.795c-45.411,17.94-34.827,0.275-33.103-13.735
		c9.291-75.413-16.623-170.695,18.703-241.813c2.66-5.353,3.836-8.033,6.799-12.384l7.962-11.224
		c7.31-10.576,27.624-30.916,38.224-38.501C1754.04,14.269,1788.073,0.001,1839.407,0.001z"/>
	<path fill-rule="evenodd" clip-rule="evenodd" fill="#fff" d="M346.859,199.215c54.038-84.275,109.832-21.654,154.506-28.678
		C467.811,169.952,476.394,244.278,346.859,199.215L346.859,199.215z M346.859,202.078c34.089-7.143,77.05-31.605,108.433-20.9
		C429.226,162.222,389.435,167.321,346.859,202.078z"/>
	<path fill-rule="evenodd" clip-rule="evenodd" fill="#fff" d="M1741.598,199.215c54.038-84.275,109.831-21.654,154.504-28.678
		C1862.548,169.952,1871.13,244.278,1741.598,199.215L1741.598,199.215z M1741.598,202.078c34.085-7.143,77.048-31.605,108.433-20.9
		C1823.962,162.222,1784.171,167.321,1741.598,202.078z"/>
</g>
</svg>
